<?xml version="1.0" standalone="no"?>
<!DOCTYPE svg PUBLIC "-//W3C//DTD SVG 20010904//EN"
 "http://www.w3.org/TR/2001/REC-SVG-20010904/DTD/svg10.dtd">
<svg version="1.0" xmlns="http://www.w3.org/2000/svg"
 width="1614.000000pt" height="1079.000000pt" viewBox="0 0 1614.000000 1079.000000"
 preserveAspectRatio="xMidYMid meet">

<g transform="translate(0.000000,1079.000000) scale(0.100000,-0.100000)"
fill="#000000" stroke="none">
<path d="M0 5395 l0 -5395 8070 0 8070 0 0 5395 0 5395 -8070 0 -8070 0 0
-5395z m9024 -529 c23 -9 37 -24 45 -46 15 -45 16 -1044 0 -1089 -20 -57 -35
-60 -365 -62 -248 -1 -306 1 -336 14 -20 8 -39 13 -42 9 -9 -8 -7 27 6 175 6
73 14 130 18 128 7 -5 40 92 40 118 0 10 -5 14 -15 11 -10 -4 -16 -22 -17 -58
-1 -28 -4 5 -8 74 -7 137 -24 188 -76 229 -15 12 -22 21 -17 21 12 0 57 -48
74 -80 7 -14 19 -50 25 -80 8 -33 13 -44 13 -28 1 15 -4 51 -10 80 -16 73 -84
141 -158 157 -96 21 -191 -17 -236 -93 -51 -88 -40 -235 24 -308 38 -45 51
-71 51 -107 0 -23 5 -30 23 -33 20 -3 20 -4 -5 -9 -27 -6 -28 -5 -28 33 0 45
-11 69 -51 116 -16 18 -31 43 -35 56 -7 31 -34 43 -34 16 0 -10 5 -31 11 -47
6 -15 14 -48 18 -73 5 -38 10 -46 31 -48 36 -5 38 -9 51 -95 11 -72 13 -77 33
-72 13 4 9 -1 -11 -14 -38 -24 -44 -46 -10 -37 12 3 32 6 44 6 12 0 29 7 37
16 15 14 16 5 14 -98 l-2 -113 -3 97 -4 97 -37 -6 c-66 -10 -173 -48 -329
-117 -213 -94 -196 -61 -239 -480 -18 -182 -34 -340 -34 -352 0 -12 11 -33 25
-48 19 -21 21 -26 8 -24 -21 4 -29 -27 -13 -47 7 -9 32 -16 59 -17 45 -1 45
-1 7 -5 l-38 -4 5 -41 c11 -78 29 -76 149 21 80 64 98 99 75 149 -12 25 -63
31 -86 10 -11 -10 -12 -10 -7 -1 4 7 -7 25 -26 42 l-33 29 -3 180 c-3 152 -1
186 13 212 31 61 36 61 556 58 l471 -3 29 -33 29 -32 0 -181 c0 -192 -8 -231
-50 -244 -22 -7 -26 -20 -10 -30 6 -3 10 -26 10 -49 0 -33 5 -48 23 -61 22
-17 22 -17 -3 -2 -20 11 -26 24 -28 58 -4 55 -16 69 -57 69 -37 0 -45 -12 -45
-69 0 -35 6 -42 78 -101 121 -98 138 -101 149 -21 l6 41 -39 2 c-33 1 -30 2
16 7 51 6 55 8 61 36 7 30 7 30 8 3 1 -16 -7 -32 -17 -40 -10 -7 -22 -30 -25
-51 -7 -45 -22 -67 -46 -67 -10 0 -56 32 -104 70 l-87 70 0 -77 c0 -62 4 -83
20 -103 25 -32 25 -55 0 -80 l-21 -21 21 -28 c24 -35 25 -41 4 -41 -9 0 -14
-6 -12 -12 4 -10 188 -14 868 -16 818 -2 862 -1 858 15 -5 16 -397 1113 -413
1156 -7 16 -43 17 -555 17 l-548 0 5 -37 c2 -21 10 -96 16 -168 l12 -130 47
-5 c26 -3 49 -8 51 -10 2 -3 25 -67 51 -144 43 -129 46 -140 31 -162 -8 -13
-15 -30 -15 -38 0 -12 -16 -16 -67 -18 -61 -3 -69 -6 -80 -28 -9 -17 -13 -20
-13 -8 0 9 5 20 10 23 6 3 10 27 11 53 0 26 3 41 6 35 3 -9 27 -13 69 -13 43
0 66 4 69 13 3 6 -14 71 -38 142 l-44 130 -41 3 c-33 3 -42 0 -42 -13 0 -9 4
-14 9 -10 5 3 12 1 16 -5 3 -5 0 -10 -9 -10 -17 0 -15 -32 4 -38 9 -3 11 1 7
12 -4 10 -3 15 3 11 15 -10 12 -35 -5 -35 -10 0 -15 -11 -15 -35 0 -32 2 -35
30 -35 17 0 30 -4 30 -9 0 -4 -11 -6 -25 -3 -21 4 -25 1 -25 -21 0 -22 5 -26
32 -29 22 -2 34 -9 36 -20 3 -15 -4 -18 -35 -18 l-39 0 -30 303 c-39 381 -28
360 -215 443 -70 32 -126 60 -124 63 3 2 63 -22 133 -53 99 -44 133 -64 146
-87 l17 -29 566 -2 566 -3 219 -610 c232 -647 243 -686 191 -693 l-23 -3 0
-705 0 -704 -60 0 -60 0 0 -60 0 -60 -522 2 -523 3 -3 58 -3 57 -49 0 -50 0 0
705 0 705 -195 0 c-107 0 -195 -3 -195 -7 1 -22 39 -115 53 -131 36 -39 99
-379 80 -428 -5 -15 -106 -50 -207 -74 l-70 -15 -27 -130 c-15 -71 -27 -130
-26 -131 1 -1 17 -9 35 -18 35 -18 62 -66 62 -110 0 -14 -9 -48 -20 -75 l-20
-51 53 24 c28 13 83 38 120 57 l68 34 47 -25 c43 -23 47 -28 50 -67 2 -31 -2
-47 -17 -62 -19 -19 -19 -20 -2 -26 63 -20 90 -127 42 -166 -15 -12 -39 -19
-66 -19 -37 0 -48 5 -74 35 -22 25 -31 46 -31 70 0 19 -2 35 -4 35 -3 0 -64
-29 -137 -65 l-132 -65 209 -102 c194 -96 209 -105 212 -132 6 -49 -6 -76 -43
-93 l-35 -17 25 -20 c18 -15 27 -35 31 -68 6 -43 4 -50 -24 -77 -25 -25 -37
-30 -76 -29 -40 0 -50 5 -81 39 -46 51 -47 94 -4 143 l30 35 -23 15 c-13 8
-113 58 -224 111 l-201 97 -229 -111 c-206 -100 -259 -131 -224 -131 6 0 27
-12 45 -26 34 -26 52 -72 46 -119 -8 -65 -124 -90 -173 -37 -39 40 -51 78 -38
118 7 19 18 38 27 43 12 6 6 13 -28 32 -42 23 -44 27 -47 75 l-3 51 206 99
c113 54 205 101 205 104 0 5 -225 120 -234 120 -3 0 -1 -12 3 -28 16 -55 -25
-102 -89 -102 -28 0 -44 8 -69 34 -41 42 -45 95 -10 132 21 22 21 25 6 42 -11
12 -17 36 -17 64 0 44 1 45 51 68 l50 24 126 -63 c69 -34 127 -60 129 -58 3 2
-5 24 -16 48 -29 64 -26 130 6 168 14 17 32 31 39 31 27 0 27 24 -1 151 -22
104 -31 129 -45 129 -28 0 -263 61 -276 72 -20 16 -16 151 7 246 11 46 25 116
31 155 6 40 20 95 30 122 10 28 19 51 19 53 0 1 -292 2 -650 2 l-650 0 0 -382
1 -383 -48 -382 -48 -383 -67 0 -68 0 0 765 0 765 -40 0 -40 0 -1 48 c-2 58
-16 3 118 447 201 666 242 797 248 804 4 3 251 7 550 9 l544 4 21 32 c17 24
50 44 148 86 l125 55 -308 5 -307 5 -24 28 -24 28 0 543 c0 530 0 544 20 569
11 14 30 28 43 30 12 2 410 5 885 6 717 1 868 -1 896 -13z m-791 -473 c-7 -2
-19 -2 -25 0 -7 3 -2 5 12 5 14 0 19 -2 13 -5z m-49 -18 c-4 -8 1 -26 10 -40
9 -13 15 -41 14 -62 l-1 -38 -4 39 c-3 21 -11 49 -20 62 -13 21 -13 54 1 54 3
0 3 -7 0 -15z m13 -177 c-3 -7 -5 -2 -5 12 0 14 2 19 5 13 2 -7 2 -19 0 -25z
m-10 -40 c-3 -8 -6 -5 -6 6 -1 11 2 17 5 13 3 -3 4 -12 1 -19z m-22 -73 c-22
-60 -29 -53 -7 7 9 26 18 45 21 43 2 -3 -4 -25 -14 -50z m-34 -91 c-5 -16 -10
-21 -10 -12 -1 18 10 51 15 45 2 -1 -1 -16 -5 -33z m-11 -124 c0 -87 -1 -90
-22 -89 -17 1 -19 2 -5 6 13 4 17 15 17 59 0 36 -4 54 -12 55 -10 0 -10 2 0 6
6 2 12 16 12 29 0 13 2 24 5 24 3 0 5 -40 5 -90z m197 -252 c-3 -7 -5 -2 -5
12 0 14 2 19 5 13 2 -7 2 -19 0 -25z m-58 -63 c-1 -29 -1 -29 -9 -5 -7 23 -8
23 -9 -9 -1 -19 -4 -32 -7 -28 -4 3 -3 27 1 53 7 52 25 44 24 -11z m111 -70
c26 -27 25 -35 -2 -34 -13 0 -18 3 -11 5 8 4 4 19 -13 51 -13 25 -24 53 -23
62 0 9 7 -2 15 -24 8 -21 23 -49 34 -60z m-233 13 c-3 -7 -5 -2 -5 12 0 14 2
19 5 13 2 -7 2 -19 0 -25z m176 -51 l32 -4 -33 -1 c-26 -2 -34 3 -42 24 -6 14
-10 33 -9 42 1 9 5 0 11 -20 8 -31 15 -37 41 -41z m-158 23 c3 -5 1 -10 -4
-10 -6 0 -11 5 -11 10 0 6 2 10 4 10 3 0 8 -4 11 -10z m85 -15 c0 -8 -4 -15
-10 -15 -5 0 -7 7 -4 15 4 8 8 15 10 15 2 0 4 -7 4 -15z m-37 -2 c-7 -2 -19
-2 -25 0 -7 3 -2 5 12 5 14 0 19 -2 13 -5z m1671 -365 c7 -13 58 -162 111
-332 74 -231 96 -313 88 -325 -9 -14 -43 -16 -254 -18 -134 -2 -250 1 -256 5
-13 8 -213 623 -213 654 0 33 31 37 272 38 236 0 238 0 252 -22z m-1016 -113
c-3 -3 -9 2 -12 12 -6 14 -5 15 5 6 7 -7 10 -15 7 -18z m-1214 -316 c-9 -10
-22 -19 -28 -19 -6 0 0 7 12 16 16 11 22 26 24 57 l1 42 4 -38 c3 -27 -1 -45
-13 -58z m-47 45 c-3 -3 -12 -4 -19 -1 -8 3 -5 6 6 6 11 1 17 -2 13 -5z m1160
-10 c-3 -3 -12 -4 -19 -1 -8 3 -5 6 6 6 11 1 17 -2 13 -5z"/>
<path d="M7235 4848 c-11 -6 -23 -16 -27 -22 -4 -6 -8 -255 -8 -553 l0 -542
22 -21 c21 -19 34 -20 348 -20 270 0 334 3 372 16 26 8 49 22 52 30 5 12 -48
14 -369 14 l-375 0 0 515 0 515 870 0 870 0 0 -515 0 -515 -327 -2 c-289 -3
-328 -5 -331 -19 -6 -34 40 -39 364 -39 l315 0 24 25 25 24 0 536 0 536 -25
24 -24 25 -878 0 c-636 -1 -884 -4 -898 -12z"/>
<path d="M6494 3463 l-30 -4 -174 -572 c-95 -315 -175 -580 -178 -589 -4 -17
39 -18 812 -18 449 0 816 4 816 8 0 4 -5 13 -12 20 -10 10 -8 19 5 42 17 29
17 30 -3 52 -25 27 -25 33 -1 72 17 29 40 166 27 166 -3 0 -42 -29 -86 -65
-95 -77 -124 -83 -146 -30 -7 19 -14 43 -14 53 0 10 -9 27 -21 38 -16 14 -20
26 -15 52 3 19 0 42 -7 53 -13 21 -53 26 -60 7 -2 -7 -10 1 -17 17 -7 17 -17
40 -23 53 -9 18 -2 48 32 155 46 141 54 157 81 157 14 0 19 19 29 133 7 72 15
149 18 170 l6 37 -504 -2 c-277 0 -518 -3 -535 -5z m223 -520 c7 -19 -55 -341
-70 -360 -7 -9 -48 -13 -142 -13 -94 0 -136 4 -143 13 -11 13 52 342 70 365 8
8 49 12 145 12 116 0 134 -2 140 -17z"/>
<path d="M6440 2937 c0 -7 -58 -292 -65 -319 l-7 -28 134 0 135 0 35 168 c19
92 33 170 31 175 -4 7 -263 11 -263 4z m240 -14 c0 -5 -12 -68 -26 -140 l-27
-133 -108 0 c-59 0 -110 3 -113 8 -4 7 38 229 49 260 5 13 225 18 225 5z"/>
<path d="M7674 3260 c-49 -20 -54 -42 -54 -228 l0 -174 29 -29 29 -29 191 0
191 0 0 100 c0 94 2 103 25 125 32 33 105 35 135 5 17 -17 20 -33 20 -125 l0
-105 195 0 c262 0 245 -16 245 233 l0 184 -26 24 -26 24 -466 2 c-257 1 -477
-2 -488 -7z"/>
<path d="M7420 2981 c-51 -163 -51 -163 2 -159 38 3 69 28 34 28 -9 0 -16 4
-16 10 0 5 7 7 15 4 8 -4 15 -2 15 4 0 6 -6 13 -12 15 -10 4 -10 6 0 6 8 1 10
9 6 27 -4 17 -3 25 3 21 5 -3 10 6 10 21 1 15 4 55 8 90 7 53 6 62 -8 62 -12
0 -27 -34 -57 -129z"/>
<path d="M8090 3020 c-20 -20 -20 -33 -20 -803 0 -747 1 -785 18 -800 22 -20
112 -23 130 -5 9 9 12 201 12 803 0 754 -1 793 -18 808 -27 24 -97 22 -122 -3z
m101 -17 c13 -16 12 -17 -3 -5 -21 17 -68 12 -81 -9 -16 -26 0 -66 30 -77 18
-7 22 -11 11 -11 -24 -1 -58 34 -58 61 0 50 71 79 101 41z m9 -72 c-6 -12 -16
-21 -22 -21 -6 0 -4 8 5 18 10 10 18 27 18 38 1 16 2 16 6 2 2 -9 -1 -26 -7
-37z m-54 -1190 c-16 -3 -33 -13 -39 -22 -14 -23 -1 -67 23 -74 49 -16 84 28
60 77 -11 22 -10 22 4 4 9 -11 16 -28 16 -38 0 -24 -35 -58 -60 -58 -26 0 -60
34 -60 62 0 31 29 58 59 57 25 -1 25 -1 -3 -8z"/>
<path d="M8820 2870 c0 -5 14 -10 30 -10 17 0 30 5 30 10 0 6 -13 10 -30 10
-16 0 -30 -4 -30 -10z"/>
<path d="M7400 2795 c0 -10 10 -15 30 -15 20 0 30 5 30 15 0 10 -10 15 -30 15
-20 0 -30 -5 -30 -15z"/>
<path d="M8830 2795 c0 -13 11 -15 57 -13 81 4 85 28 4 28 -48 0 -61 -3 -61
-15z"/>
<path d="M7766 2763 c5 -10 7 -72 5 -138 -2 -96 -6 -127 -22 -153 -23 -41 -24
-37 3 -61 19 -19 20 -23 8 -48 -8 -16 -16 -31 -18 -35 -2 -5 3 -8 11 -8 14 0
37 40 37 65 0 11 8 13 33 8 42 -8 51 -17 11 -11 -27 4 -33 0 -42 -25 -6 -17
-9 -34 -6 -39 3 -5 0 -7 -6 -6 -11 3 -29 -43 -90 -225 -24 -72 -27 -220 -6
-272 8 -19 28 -41 45 -50 37 -19 148 -34 249 -35 l72 0 0 29 c0 23 -5 31 -22
34 l-23 4 23 2 c23 1 23 2 21 136 l-2 135 -163 0 -163 0 -4 -67 -3 -68 -2 73
-2 72 170 0 170 0 0 79 c0 54 -4 81 -12 84 -10 4 -10 6 0 6 8 1 12 18 12 50 0
46 -2 50 -27 54 l-28 4 28 2 c22 1 27 6 27 26 0 19 -8 28 -36 40 -49 20 -132
82 -146 108 -6 13 11 2 39 -24 50 -47 71 -61 117 -79 l26 -10 0 180 0 180
-146 0 c-136 0 -146 -1 -138 -17z m28 -329 c9 -24 6 -31 -5 -11 -8 14 -14 16
-25 6 -9 -7 -14 -8 -14 -1 0 9 15 19 31 21 4 1 10 -6 13 -15z m119 -61 c-7 -2
-21 -2 -30 0 -10 3 -4 5 12 5 17 0 24 -2 18 -5z m65 -10 c-10 -2 -26 -2 -35 0
-10 3 -2 5 17 5 19 0 27 -2 18 -5z m-148 -63 c8 -5 11 -10 5 -10 -5 0 -17 5
-25 10 -8 5 -10 10 -5 10 6 0 17 -5 25 -10z m77 -26 c-3 -3 -12 -4 -19 -1 -8
3 -5 6 6 6 11 1 17 -2 13 -5z m40 -10 c-3 -3 -12 -4 -19 -1 -8 3 -5 6 6 6 11
1 17 -2 13 -5z m61 -11 c-10 -2 -26 -2 -35 0 -10 3 -2 5 17 5 19 0 27 -2 18
-5z m-281 -355 c-3 -7 -5 -2 -5 12 0 14 2 19 5 13 2 -7 2 -19 0 -25z m71 -101
l37 -4 -38 -1 c-35 -2 -39 1 -53 33 -7 19 -14 40 -13 47 0 7 7 -6 15 -29 14
-38 19 -42 52 -46z m130 -14 c-16 -2 -40 -2 -55 0 -16 2 -3 4 27 4 30 0 43 -2
28 -4z m65 0 c-7 -2 -19 -2 -25 0 -7 3 -2 5 12 5 14 0 19 -2 13 -5z"/>
<path d="M8250 2620 c0 -88 3 -160 6 -160 3 0 15 5 27 11 21 10 21 10 3 -5
-11 -9 -23 -16 -27 -16 -4 0 -7 -21 -7 -46 l1 -46 61 6 61 5 -60 -12 -60 -12
-3 -42 c-3 -42 -3 -43 30 -44 l33 -1 -30 -7 -30 -6 0 -80 0 -80 163 -3 162 -2
-1 -28 c-2 -23 -2 -24 -6 -4 -4 22 -6 22 -162 22 l-158 0 -2 -134 -2 -134 48
-10 48 -11 -47 5 c-48 5 -48 5 -48 -25 l0 -31 73 0 c160 1 264 26 287 71 36
66 27 239 -16 342 -15 34 -33 82 -40 107 -8 25 -24 65 -37 90 -20 40 -26 45
-52 42 -39 -5 -30 3 13 11 24 5 32 3 32 -8 0 -25 23 -65 37 -65 17 0 16 10 -3
35 -9 12 -12 30 -9 46 7 32 -9 47 -24 22 -6 -10 -10 -13 -11 -8 0 6 4 16 8 23
11 17 42 5 42 -17 1 -14 2 -14 11 2 8 13 5 26 -11 52 -20 32 -21 46 -18 170
l3 135 -142 0 -143 0 0 -160z m160 -40 c0 -14 -59 -79 -84 -92 -11 -6 -2 6 21
26 23 20 45 45 48 56 7 21 15 27 15 10z m-62 -177 c-16 -2 -40 -2 -55 0 -16 2
-3 4 27 4 30 0 43 -2 28 -4z m75 -30 c-7 -2 -21 -2 -30 0 -10 3 -4 5 12 5 17
0 24 -2 18 -5z m42 -73 c-22 -10 -53 -21 -70 -24 -16 -4 -3 4 30 18 71 28 97
32 40 6z m-112 -37 c-7 -2 -19 -2 -25 0 -7 3 -2 5 12 5 14 0 19 -2 13 -5z
m218 -355 l-11 -33 5 34 c3 18 6 52 7 75 l1 41 4 -42 c2 -22 -1 -56 -6 -75z
m-21 -82 c-11 -34 -14 -36 -53 -35 l-42 2 40 6 c34 5 41 11 49 39 5 18 11 30
13 28 3 -3 0 -21 -7 -40z m-127 -43 c-13 -2 -35 -2 -50 0 -16 2 -5 4 22 4 28
0 40 -2 28 -4z"/>
<path d="M6110 2235 l0 -35 800 0 800 0 10 26 c6 14 10 30 10 35 0 5 -314 9
-810 9 l-810 0 0 -35z"/>
<path d="M8571 2238 c5 -18 9 -34 9 -35 0 -2 385 -3 855 -3 l855 0 0 35 0 35
-864 0 -865 0 10 -32z"/>
<path d="M6190 1430 l0 -760 50 0 50 0 0 760 0 760 -50 0 -50 0 0 -760z"/>
<path d="M6301 1493 c1 -384 3 -691 5 -683 2 8 19 140 39 294 35 277 35 280
35 682 l0 404 -40 0 -40 0 1 -697z"/>
<path d="M9010 1490 l0 -700 615 0 615 0 0 700 0 700 -615 0 -615 0 0 -700z
m77 218 c-1 -79 -3 -15 -3 142 0 157 2 221 3 143 2 -79 2 -207 0 -285z m1070
0 c-1 -79 -3 -15 -3 142 0 157 2 221 3 143 2 -79 2 -207 0 -285z m-377 157 c9
-11 10 -19 3 -26 -8 -8 -11 -6 -10 7 2 18 -8 19 -165 19 -91 0 -164 3 -161 8
2 4 75 7 162 7 131 0 161 -3 171 -15z m-693 -867 c-1 -79 -3 -15 -3 142 0 157
2 221 3 143 2 -79 2 -207 0 -285z m1070 0 c-1 -79 -3 -15 -3 142 0 157 2 221
3 143 2 -79 2 -207 0 -285z m-372 147 c0 -19 -8 -20 -164 -23 -91 -1 -168 1
-172 5 -5 5 68 7 161 5 150 -3 170 -1 170 13 0 14 -20 16 -169 13 -93 -2 -167
0 -164 5 2 4 80 6 171 5 159 -3 167 -4 167 -23z"/>
<path d="M8646 1977 c9 -66 -4 -151 -30 -189 -30 -45 -77 -59 -231 -67 l-130
-6 0 -40 0 -40 60 3 c111 6 368 65 397 91 6 5 -58 280 -68 290 -2 2 -1 -16 2
-42z"/>
<path d="M7630 1802 c-7 -40 -11 -74 -9 -76 10 -9 213 -57 299 -71 134 -21
130 -22 130 25 l0 40 -117 0 c-198 1 -240 20 -280 129 -8 21 -11 13 -23 -47z"/>
<path d="M7622 1663 l3 -47 55 -17 c69 -21 235 -55 313 -64 l57 -7 0 51 c0 47
-2 51 -23 51 -40 0 -207 31 -305 56 -51 13 -95 24 -98 24 -3 0 -4 -21 -2 -47z"/>
<path d="M8670 1701 c-26 -16 -223 -60 -290 -66 -130 -12 -130 -12 -130 -50 0
-38 14 -47 23 -15 4 15 14 20 41 20 32 0 37 -3 42 -30 7 -32 -1 -32 124 -8 73
14 223 57 234 68 12 11 -3 90 -17 90 -7 0 -19 -5 -27 -9z"/>
<path d="M8290 1550 c0 -15 -7 -20 -25 -20 -20 0 -25 -5 -25 -25 0 -20 5 -25
25 -25 18 0 25 -5 25 -20 0 -15 7 -20 25 -20 24 0 25 2 25 65 0 63 -1 65 -25
65 -18 0 -25 -5 -25 -20z"/>
<path d="M7930 1513 c1 -5 7 -34 15 -67 15 -63 43 -101 90 -122 17 -7 23 -13
15 -14 -9 0 -31 11 -51 24 l-36 25 13 -57 c17 -69 18 -94 5 -73 -8 12 -14 12
-39 2 -57 -24 -67 -95 -27 -188 23 -52 47 -83 65 -83 3 0 5 28 4 63 l-2 62 6
-55 c9 -68 13 -75 63 -100 l39 -20 0 194 c0 146 -3 196 -12 199 -10 4 -10 6 0
6 20 1 14 70 -8 98 -12 15 -20 41 -20 63 0 35 -2 38 -37 44 -51 8 -83 8 -83
-1z m67 -335 c-3 -7 -5 -2 -5 12 0 14 2 19 5 13 2 -7 2 -19 0 -25z m0 -70 c-2
-13 -4 -5 -4 17 -1 22 1 32 4 23 2 -10 2 -28 0 -40z"/>
<path d="M8373 1513 c-7 -2 -13 -17 -13 -33 0 -48 -9 -60 -47 -60 -26 0 -36 5
-40 20 -7 25 -23 26 -23 1 0 -10 -9 -30 -20 -44 -25 -31 -26 -63 -2 -76 10 -6
12 -11 4 -11 -10 0 -12 -44 -11 -210 1 -124 5 -207 11 -204 5 3 6 15 2 27 -6
21 -5 21 8 3 14 -18 16 -17 65 8 56 28 62 34 74 80 8 29 8 29 5 -6 -4 -36 -4
-37 19 -26 32 14 69 101 70 161 0 41 -4 52 -29 73 -34 30 -58 28 -67 -6 -13
-46 -8 4 6 70 19 87 19 85 -16 56 -17 -14 -38 -26 -47 -26 -9 1 -3 7 14 14 17
8 40 26 52 40 18 24 42 103 42 141 0 15 -31 19 -57 8z m-80 -210 c-7 -2 -19
-2 -25 0 -7 3 -2 5 12 5 14 0 19 -2 13 -5z m74 -155 c-3 -7 -5 -2 -5 12 0 14
2 19 5 13 2 -7 2 -19 0 -25z m10 -80 c-2 -13 -4 -5 -4 17 -1 22 1 32 4 23 2
-10 2 -28 0 -40z"/>
<path d="M8110 1123 c0 -148 4 -273 8 -279 4 -6 14 -14 22 -17 12 -4 11 -6 -3
-6 -12 -1 -23 10 -30 31 -11 29 -33 42 -236 141 l-223 109 -39 -18 c-22 -9
-39 -22 -39 -29 0 -7 106 -63 235 -126 186 -90 235 -118 233 -132 -2 -12 -76
-52 -235 -130 -128 -61 -233 -118 -233 -124 0 -14 50 -43 73 -43 8 0 131 56
273 125 l257 125 258 -125 c142 -69 263 -125 268 -125 18 0 81 33 81 43 0 5
-105 60 -234 123 -129 62 -237 118 -240 123 -11 18 21 36 248 146 124 60 225
114 223 119 -2 6 -19 20 -39 31 l-36 19 -244 -118 c-145 -71 -250 -128 -261
-142 -10 -13 -24 -24 -30 -24 -7 0 -4 5 6 11 15 9 17 34 17 284 l0 275 -40 0
-40 0 0 -267z"/>
<path d="M7570 1009 c0 -16 41 -40 215 -126 195 -95 245 -113 245 -84 0 8
-151 85 -367 187 -86 40 -93 42 -93 23z"/>
<path d="M8543 919 c-144 -70 -223 -114 -223 -124 0 -8 6 -15 14 -15 8 0 112
47 230 104 178 86 216 108 216 125 0 12 -3 21 -7 20 -5 0 -108 -50 -230 -110z"/>
<path d="M7600 945 c0 -8 5 -15 10 -15 6 0 10 7 10 15 0 8 -4 15 -10 15 -5 0
-10 -7 -10 -15z"/>
<path d="M7630 930 c0 -6 7 -10 15 -10 8 0 15 2 15 4 0 2 -7 6 -15 10 -8 3
-15 1 -15 -4z"/>
<path d="M8740 930 c0 -5 10 -10 23 -10 18 0 19 2 7 10 -19 13 -30 13 -30 0z"/>
<path d="M7577 912 c-16 -18 -21 -35 -17 -67 1 -15 5 -12 17 15 8 19 22 39 30
45 14 11 14 12 0 18 -8 3 -22 -2 -30 -11z"/>
<path d="M8686 911 c-18 -19 -22 -76 -6 -86 6 -4 10 6 10 21 0 15 9 38 21 50
16 18 17 22 5 27 -8 3 -21 -2 -30 -12z"/>
<path d="M7609 892 c-15 -13 -22 -30 -22 -51 0 -53 17 -58 55 -16 65 75 67 85
17 85 -15 0 -37 -8 -50 -18z"/>
<path d="M8720 890 c-21 -21 -26 -65 -10 -90 10 -17 10 -16 64 48 20 24 33 48
30 53 -10 16 -64 9 -84 -11z"/>
<path d="M8777 836 c-21 -24 -37 -47 -37 -50 0 -3 11 -6 25 -6 45 0 79 52 56
88 -6 9 -18 1 -44 -32z"/>
<path d="M7661 833 c-17 -21 -31 -41 -31 -45 0 -10 41 -10 56 0 19 12 34 50
28 66 -9 24 -19 20 -53 -21z"/>
<path d="M9110 725 l0 -55 505 0 505 0 0 55 0 55 -505 0 -505 0 0 -55z"/>
<path d="M7916 614 c-141 -68 -263 -124 -271 -124 -9 0 -29 7 -45 15 -29 15
-30 15 -30 -8 0 -18 9 -28 38 -41 l38 -17 258 125 c143 69 263 126 268 126 5
0 126 -56 269 -125 l259 -125 40 20 c25 13 40 27 40 39 0 18 -2 18 -44 3 l-44
-16 -108 53 c-60 30 -177 86 -261 127 l-152 72 -255 -124z"/>
<path d="M8641 437 c0 -16 -5 -26 -10 -22 -17 10 -51 -37 -51 -71 0 -45 16
-51 24 -9 4 19 17 42 29 52 18 14 21 24 16 48 l-7 30 -1 -28z"/>
<path d="M7678 444 c-26 -26 8 -63 40 -44 15 8 14 9 -5 10 -14 0 -23 7 -25 21
-2 11 -6 17 -10 13z"/>
<path d="M8660 420 c0 -5 10 -10 23 -10 18 0 19 2 7 10 -19 13 -30 13 -30 0z"/>
<path d="M7624 367 c-13 -26 -13 -37 -3 -62 l12 -30 7 37 c4 21 14 46 23 56
10 10 14 22 10 25 -15 15 -34 5 -49 -26z"/>
<path d="M8639 371 c-16 -16 -29 -36 -29 -45 0 -22 18 -66 27 -66 5 0 30 27
57 61 39 48 46 63 35 70 -26 17 -61 9 -90 -20z"/>
<path d="M7695 378 c-44 -23 -58 -74 -35 -119 10 -17 16 -14 65 43 47 56 52
64 37 76 -19 15 -40 15 -67 0z"/>
<path d="M8702 314 c-44 -51 -45 -64 -6 -64 46 0 80 59 55 98 -6 10 -19 1 -49
-34z"/>
<path d="M7737 303 c-20 -25 -37 -50 -37 -54 0 -17 57 -9 75 11 19 21 24 65 9
80 -6 6 -25 -10 -47 -37z"/>
<path d="M9373 3074 c-3 -9 39 -156 93 -328 l99 -311 243 -3 c207 -2 243 0
248 12 3 9 -6 50 -19 93 -14 43 -60 185 -102 316 l-76 237 -240 0 c-211 0
-240 -2 -246 -16z m569 -294 c54 -162 96 -301 93 -308 -3 -10 -55 -12 -232
-10 l-228 3 -97 295 c-72 220 -94 297 -86 307 8 11 59 13 232 11 l221 -3 97
-295z"/>
</g>
</svg>
